<?xml version="1.0" standalone="no"?>
<!DOCTYPE svg PUBLIC "-//W3C//DTD SVG 20010904//EN"
 "http://www.w3.org/TR/2001/REC-SVG-20010904/DTD/svg10.dtd">
<svg version="1.0" xmlns="http://www.w3.org/2000/svg"
 width="1280.000000pt" height="1248.000000pt" viewBox="0 0 1280.000000 1248.000000"
 preserveAspectRatio="xMidYMid meet">
<g transform="translate(0.000000,1248.000000) scale(0.100000,-0.100000)"
fill="#000000" stroke="none">
<path d="M8945 11931 c-5 -9 0 -322 25 -1446 6 -275 6 -433 -1 -440 -12 -12
-3 -23 -254 300 -120 154 -222 284 -226 290 -6 6 -15 4 -24 -5 -12 -13 -12
-23 0 -80 8 -36 46 -204 85 -374 38 -170 70 -313 70 -318 0 -4 -8 -8 -17 -8
-10 0 -295 142 -633 315 -527 269 -617 312 -629 300 -12 -12 -9 -20 21 -57 20
-24 187 -225 372 -448 185 -222 335 -409 333 -415 -5 -13 -178 -10 -832 15
-291 11 -703 27 -915 35 -212 8 -436 17 -497 20 -109 6 -113 6 -113 -14 0 -14
9 -23 28 -28 15 -3 312 -72 661 -152 349 -80 636 -151 638 -157 2 -7 -40 -35
-94 -64 -213 -115 -450 -292 -660 -494 l-108 -104 -110 29 c-299 78 -604 77
-805 -4 -153 -62 -244 -142 -342 -298 -74 -120 -49 -111 -248 -85 -507 65
-1031 33 -1539 -94 -584 -147 -1114 -412 -1598 -798 -148 -118 -433 -400 -562
-555 -523 -631 -849 -1392 -935 -2187 -9 -80 -21 -184 -26 -231 -13 -110 -13
-338 0 -448 5 -47 17 -153 26 -236 61 -583 258 -1166 569 -1684 655 -1091
1823 -1838 3085 -1975 80 -9 192 -21 250 -27 231 -25 688 12 1046 85 178 36
269 61 459 123 477 156 902 386 1298 702 172 136 495 459 631 631 502 630 796
1341 892 2155 21 174 24 656 5 825 -83 765 -345 1454 -776 2045 -47 64 -85
122 -85 128 0 7 16 39 36 71 105 175 129 257 121 421 -3 67 -14 139 -27 185
-40 140 -141 327 -263 483 l-22 29 46 41 c105 96 307 210 463 261 103 34 249
63 359 72 76 6 87 5 87 -9 0 -9 -104 -156 -231 -327 -307 -413 -308 -412 94
-140 163 110 301 200 307 200 5 0 10 -5 10 -10 0 -6 -122 -320 -271 -698 -150
-378 -274 -696 -276 -708 -3 -13 1 -23 11 -27 11 -4 180 201 637 776 342 430
626 786 630 792 6 5 13 5 20 -2 6 -6 53 -338 105 -739 235 -1802 219 -1689
237 -1692 9 -2 19 2 22 10 2 7 23 204 45 438 22 234 47 481 55 550 8 69 35
345 60 615 25 269 49 493 54 498 10 10 -5 23 451 -377 206 -181 381 -331 388
-334 47 -18 30 27 -141 380 -97 200 -235 484 -306 633 -79 161 -127 273 -122
278 6 6 275 -49 673 -136 879 -194 857 -189 868 -182 6 3 10 12 10 19 0 14 3
12 -475 344 -208 144 -350 249 -350 259 0 11 61 35 243 91 133 42 242 79 242
83 0 4 -201 74 -447 157 -284 94 -448 153 -448 162 0 7 339 198 753 424 558
304 752 415 752 428 0 10 -7 18 -15 18 -8 0 -281 -70 -607 -156 -326 -85 -695
-182 -819 -215 -217 -57 -269 -67 -269 -52 0 3 115 191 256 416 227 362 255
410 242 424 -13 13 -56 -10 -371 -196 -195 -116 -360 -211 -365 -211 -15 0
-20 62 -33 390 -14 359 -18 395 -42 395 -14 0 -57 -83 -192 -374 -96 -205
-176 -376 -180 -379 -3 -3 -10 -1 -15 4 -5 5 -95 394 -200 864 -105 470 -198
885 -206 923 -15 63 -32 84 -49 58z"/>
</g>
</svg>
